<svg width="30" height="30" viewBox="0 0 30 30" fill="none" xmlns="http://www.w3.org/2000/svg"><path fill-rule="evenodd" clip-rule="evenodd" d="M15 8.35251C16.0391 6.78779 17.6268 5.66925 19.45 5.21751C19.0304 4.3985 18.3929 3.71118 17.6078 3.23123C16.8226 2.75127 15.9202 2.49731 15 2.49731C14.0798 2.49731 13.1774 2.75127 12.3922 3.23123C11.6071 3.71118 10.9696 4.3985 10.55 5.21751C12.3732 5.66925 13.9609 6.78779 15 8.35251ZM7.92927 11.6793C6.34638 13.2622 5.34006 15.3302 5.07126 17.5525L5.07001 17.5538C4.34084 17.022 3.73548 16.3386 3.29557 15.5505C2.85566 14.7625 2.59163 13.8886 2.52163 12.9888C2.45164 12.089 2.57734 11.1847 2.89009 10.3382C3.20284 9.4916 3.69523 8.7228 4.33339 8.08464C4.97155 7.44648 5.74035 6.95409 6.58693 6.64134C7.4335 6.32859 8.33777 6.20289 9.23754 6.27288C10.1373 6.34288 11.0113 6.60691 11.7993 7.04682C12.5873 7.48673 13.2707 8.09209 13.8025 8.82126C11.5802 9.09006 9.51216 10.0964 7.92927 11.6793ZM26.7032 15.5493C26.2633 16.3373 25.6579 17.0207 24.9288 17.5525C24.6602 15.3298 23.6538 13.2613 22.0706 11.6782C20.4875 10.095 18.419 9.0886 16.1963 8.82001C16.7281 8.09084 17.4115 7.48548 18.1995 7.04557C18.9875 6.60566 19.8615 6.34163 20.7612 6.27163C21.661 6.20164 22.5653 6.32734 23.4118 6.64009C24.2584 6.95284 25.0272 7.44523 25.6654 8.08339C26.3035 8.72155 26.7959 9.49035 27.1087 10.3369C27.4214 11.1835 27.5471 12.0878 27.4771 12.9875C27.4071 13.8873 27.1431 14.7613 26.7032 15.5493ZM21.1872 24.9372C19.5463 26.5781 17.3207 27.5 15 27.5C12.6794 27.5 10.4538 26.5781 8.81283 24.9372C7.17189 23.2963 6.25001 21.0707 6.25001 18.75C6.25001 16.4294 7.17189 14.2038 8.81283 12.5628C10.4538 10.9219 12.6794 10 15 10C17.3207 10 19.5463 10.9219 21.1872 12.5628C22.8281 14.2038 23.75 16.4294 23.75 18.75C23.75 21.0707 22.8281 23.2963 21.1872 24.9372ZM10.162 17.364C10.054 18.084 10 18.81 10 19.542C10 20.826 10.21 21.888 10.63 22.728C11.05 23.556 11.614 24.174 12.322 24.582C13.03 24.978 13.822 25.176 14.698 25.176C16.042 25.176 17.104 24.78 17.884 23.988C18.676 23.196 19.072 22.104 19.072 20.712C19.072 19.416 18.742 18.414 18.082 17.706C17.422 16.998 16.528 16.644 15.4 16.644C14.68 16.644 14.092 16.788 13.636 17.076C13.192 17.364 12.85 17.718 12.61 18.138H12.502C12.538 17.346 12.676 16.65 12.916 16.05C13.156 15.438 13.564 14.964 14.14 14.628C14.728 14.292 15.556 14.124 16.624 14.124C16.888 14.124 17.152 14.142 17.416 14.178C17.692 14.214 17.944 14.256 18.172 14.304V12.126C17.944 12.078 17.662 12.048 17.326 12.036C16.99 12.012 16.696 12 16.444 12C15.376 12 14.464 12.144 13.708 12.432C12.964 12.708 12.346 13.098 11.854 13.602C11.374 14.094 10.996 14.664 10.72 15.312C10.456 15.948 10.27 16.632 10.162 17.364ZM12.916 21.684C12.772 21.3 12.7 20.91 12.7 20.514C12.7 20.226 12.784 19.95 12.952 19.686C13.12 19.41 13.348 19.182 13.636 19.002C13.936 18.822 14.29 18.732 14.698 18.732C15.286 18.732 15.724 18.912 16.012 19.272C16.3 19.632 16.444 20.124 16.444 20.748C16.444 21.516 16.276 22.086 15.94 22.458C15.604 22.818 15.172 22.998 14.644 22.998C14.224 22.998 13.864 22.878 13.564 22.638C13.276 22.386 13.06 22.068 12.916 21.684Z" fill="white"></path></svg>