<svg width="48px" height="48px" viewBox="0 0 256 256" version="1.1" xmlns="http://www.w3.org/2000/svg" xml:space="preserve" class="svelte-13r55oh" style="fill-rule: evenodd; clip-rule: evenodd; stroke-linejoin: round; stroke-miterlimit: 2;"><g transform="matrix(5.76923,0,0,5.76923,-323.654,-3.61868)"><circle cx="78.2" cy="22.8" r="22.1" style="fill: white;"></circle></g><g transform="matrix(5.76923,0,0,5.76923,-323.654,-3.61868)"><path d="M98.3,21.7C99.3,21.6 100.3,20.7 100.1,19.6C99.6,15.8 98.1,12.3 95.7,9.2C93.3,6.1 90.3,3.8 86.7,2.3C85.7,1.9 84.7,2.5 84.2,3.5L83.8,5C83.5,6.1 84.1,7.2 85.1,7.6C87.5,8.7 89.7,10.4 91.3,12.5C92.9,14.6 94.1,17.1 94.5,19.8C94.7,20.9 95.5,21.7 96.7,21.7L98.2,21.6L98.3,21.7Z" style="fill: rgb(255, 199, 0); fill-rule: nonzero;"></path></g><g transform="matrix(5.76923,0,0,5.76923,-323.654,-3.61868)"><path d="M61.8,11.1C60.8,10.5 60.8,9.2 61.4,8.4C63.8,5.5 67,3.3 70.4,2C73.8,0.7 78,0.3 81.6,0.9C82.6,1.1 83.3,2.2 83.1,3.2L82.7,4.7C82.4,5.8 81.3,6.4 80.3,6.3C77.7,6 75,6.3 72.5,7.2C70,8.1 67.8,9.6 66,11.6C65.3,12.4 64,12.6 63,12L61.7,11.1L61.8,11.1Z" style="fill: rgb(255, 107, 107); fill-rule: nonzero;"></path></g><g transform="matrix(5.76923,0,0,5.76923,-323.654,-3.61868)"><path d="M62,34.6C61,35.3 59.8,35.1 59.3,34.1C57.3,30.9 56.3,27.2 56.3,23.5C56.3,19.8 57,16 58.7,12.7C59.2,11.7 60.4,11.4 61.4,12L62.7,12.8C63.7,13.4 63.9,14.6 63.4,15.6C62.4,18 61.7,20.6 61.8,23.3C61.9,26 62.6,28.5 63.8,30.8C64.3,31.8 64.2,33 63.3,33.7L62.1,34.6L62,34.6Z" style="fill: rgb(0, 164, 216); fill-rule: nonzero;"></path></g><g transform="matrix(5.76923,0,0,5.76923,-323.654,-3.61868)"><path d="M84.6,41.9C84.9,42.9 84.4,44.1 83.3,44.3C79.6,45.2 75.8,45.1 72.1,44C68.4,42.9 65.1,41 62.5,38.3C61.7,37.5 61.8,36.2 62.7,35.5L63.9,34.5C64.9,33.8 65.9,33.9 66.9,34.7C68.9,36.5 71.2,37.9 73.7,38.6C76.2,39.3 79,39.4 81.7,38.9C82.7,38.7 83.9,39.2 84.3,40.3L84.8,41.8L84.6,41.9Z" style="fill: rgb(30, 216, 0); fill-rule: nonzero;"></path></g><g transform="matrix(5.76923,0,0,5.76923,-323.654,-3.61868)"><path d="M98.3,22.8C99.3,22.8 100.3,23.7 100.3,24.8C100,28.5 98.7,32.1 96.6,35.2C94.5,38.3 91.6,40.8 88.4,42.5C87.4,43 86.2,42.5 85.8,41.5L85.2,40.1C84.8,39.1 85.3,37.9 86.2,37.4C88.5,36.1 90.4,34.3 91.9,32.2C93.4,30.1 94.3,27.5 94.6,24.9C94.7,23.8 95.6,22.9 96.6,22.9L98.1,22.9L98.3,22.8Z" style="fill: rgb(177, 99, 255); fill-rule: nonzero;"></path></g><g transform="matrix(5.76923,0,0,5.76923,94.5583,170.035)"><text x="0px" y="0px" style="font-family: &quot;Noto Sans Lao&quot;, sans-serif; font-size: 22px; fill: rgb(78, 78, 78);"></text></g></svg>