<svg width="48px" height="48px" viewBox="0 0 256 256" version="1.1" xmlns="http://www.w3.org/2000/svg" xml:space="preserve" class="svelte-13r55oh" style="fill-rule: evenodd; clip-rule: evenodd; stroke-linejoin: round; stroke-miterlimit: 2;"><g transform="matrix(5.76923,0,0,5.76923,-646.154,-3.9946)"><circle cx="134.1" cy="22.8" r="22.1" style="fill: white;"></circle></g><g transform="matrix(5.76923,0,0,5.76923,-646.154,-3.9946)"><path d="M154.2,21.8C155.2,21.7 156.2,20.8 156,19.7C155.3,14.8 153,10.2 149.3,6.7C145.6,3.2 141,1.1 136,0.7C135,0.6 134,1.5 134,2.6L134,4.1C134,5.2 135,6.1 136,6.2C139.6,6.6 143,8.2 145.5,10.6C148,13 149.9,16.3 150.5,19.9C150.7,21 151.5,21.8 152.7,21.8L154.2,21.8Z" style="fill: rgb(255, 199, 0); fill-rule: nonzero;"></path></g><g transform="matrix(5.76923,0,0,5.76923,-646.154,-3.9946)"><path d="M114,22.8C113,22.8 112,21.9 112,20.8C112.4,15.9 114.5,11.3 118,7.6C121.5,3.9 126,1.6 130.7,0.9C131.7,0.7 132.7,1.6 132.7,2.7L132.8,4.2C132.9,5.3 132,6.2 130.8,6.4C127.3,7 124.2,8.8 121.8,11.4C119.4,14 117.8,17.3 117.4,20.8C117.3,21.9 116.4,22.8 115.4,22.8L114,22.8Z" style="fill: rgb(255, 107, 107); fill-rule: nonzero;"></path></g><g transform="matrix(5.76923,0,0,5.76923,-646.154,-3.9946)"><path d="M134,42.9C134,44 133,44.9 132,44.8C127,44.4 122.5,42.3 119,38.9C115.5,35.5 113,31 112.3,26.2C112.1,25.1 113,24.2 114.1,24.1L115.6,24C116.6,23.9 117.6,24.8 117.8,25.9C118.5,29.3 120.2,32.5 122.8,34.9C125.4,37.3 128.8,38.8 132.2,39.3C133.2,39.4 134.2,40.3 134.2,41.4L134.2,42.9L134,42.9Z" style="fill: rgb(0, 164, 216); fill-rule: nonzero;"></path></g><g transform="matrix(5.76923,0,0,5.76923,-646.154,-3.9946)"><path d="M154.2,22.8C155.2,22.8 156.2,23.7 156.2,24.8C155.7,29.8 153.6,34.5 150.2,38.2C146.8,41.9 142.2,44.2 137.2,44.8C136.2,44.9 135.2,44.1 135.2,43L135.2,41.5C135.2,40.4 136,39.5 137.2,39.3C140.7,38.7 144,37 146.5,34.4C149,31.8 150.5,28.4 151,24.9C151.1,23.8 152,22.9 153,22.9L154.5,22.9L154.2,22.8Z" style="fill: rgb(30, 216, 0); fill-rule: nonzero;"></path></g><g transform="matrix(5.76923,0,0,5.76923,94.5588,169.659)"><text x="0px" y="0px" style="font-family: &quot;Noto Sans Lao&quot;, sans-serif; font-size: 22px; fill: rgb(78, 78, 78);"></text></g></svg>