<svg width="48px" height="48px" viewBox="0 0 256 256" version="1.1" xmlns="http://www.w3.org/2000/svg" xml:space="preserve" class="svelte-13r55oh" style="fill-rule: evenodd; clip-rule: evenodd; stroke-linejoin: round; stroke-miterlimit: 2;"><g transform="matrix(5.76923,0,0,5.76923,-1613.08,-4.03846)"><circle cx="301.7" cy="22.8" r="22.1" style="fill: white;"></circle></g><g transform="matrix(5.76923,0,0,5.76923,-1613.08,-4.03846)"><path d="M323.8,22.8C323.8,35 313.8,44.9 301.8,44.9C289.8,44.9 279.8,35 279.8,22.8C279.8,10.6 289.8,0.7 301.8,0.7C313.8,0.7 323.8,10.6 323.8,22.8ZM285.1,22.8C285.1,32 292.5,39.4 301.7,39.4C310.9,39.4 318.3,32 318.3,22.8C318.3,13.6 310.9,6.2 301.7,6.2C292.5,6.2 285,13.6 285.1,22.8Z" style="fill: rgb(255, 199, 0); fill-rule: nonzero;"></path></g><g transform="matrix(5.76923,0,0,5.76923,92.2506,169.615)"><text x="0px" y="0px" style="font-family: &quot;Noto Sans Lao&quot;, sans-serif; font-size: 22px; fill: rgb(78, 78, 78);"></text></g></svg>