<svg width="48px" height="48px" viewBox="0 0 256 256" version="1.1" xmlns="http://www.w3.org/2000/svg" xml:space="preserve" class="svelte-13r55oh" style="fill-rule: evenodd; clip-rule: evenodd; stroke-linejoin: round; stroke-miterlimit: 2;"><g transform="matrix(5.75169,0,0,5.75169,-0.950339,-3.26679)"><circle cx="22.3" cy="22.8" r="22.1" style="fill: white;"></circle></g><g transform="matrix(5.75169,0,0,5.75169,-0.950339,-3.26679)"><path d="M32.5,5.4C33.1,4.4 34.3,4.1 35.2,4.8C37.6,6.5 39.7,8.7 41.2,11.3C42.7,13.9 43.8,16.7 44.2,19.6C44.4,20.7 43.5,21.6 42.4,21.7L40.9,21.8C39.9,21.9 38.9,21 38.7,19.9C38.3,17.9 37.7,15.9 36.5,14.2C35.3,12.5 34,10.9 32.5,9.6C31.5,8.9 31.3,7.7 31.8,6.8L32.6,5.5L32.5,5.4Z" style="fill: rgb(255, 199, 0); fill-rule: nonzero;"></path></g><g transform="matrix(5.75169,0,0,5.75169,-0.950339,-3.26679)"><path d="M12.3,5.3C11.8,4.3 12.1,3.1 13.1,2.7C15.8,1.5 18.7,0.8 21.7,0.7C24.7,0.6 27.7,1.1 30.4,2.2C31.4,2.6 31.8,3.8 31.4,4.8L30.7,6.2C30.2,7.2 29,7.6 28,7.2C26,6.5 24,6.2 22,6.2C20,6.2 18,6.7 16,7.5C15,7.9 13.8,7.6 13.2,6.7L12.3,5.3Z" style="fill: rgb(255, 107, 107); fill-rule: nonzero;"></path></g><g transform="matrix(5.75169,0,0,5.75169,-0.950339,-3.26679)"><path d="M2.2,22.8C1.2,22.8 0.2,21.9 0.2,20.8C0.5,17.8 1.4,14.9 2.8,12.2C4.2,9.5 6.2,7.2 8.6,5.3C9.6,4.6 10.6,4.9 11.3,5.8L12.1,7.1C12.7,8 12.4,9.3 11.6,10C10,11.3 8.6,13 7.6,14.8C6.6,16.6 5.9,18.7 5.6,20.8C5.5,21.9 4.6,22.8 3.6,22.8L2.2,22.8Z" style="fill: rgb(0, 164, 216); fill-rule: nonzero;"></path></g><g transform="matrix(5.75169,0,0,5.75169,-0.950339,-3.26679)"><path d="M12,40C11.4,40.9 10.2,41.3 9.3,40.6C6.9,38.8 4.9,36.6 3.3,34.1C1.7,31.6 0.8,28.7 0.3,25.8C0.2,24.7 1,23.8 2.1,23.7L3.6,23.6C4.6,23.6 5.6,24.4 5.8,25.5C6.1,27.5 6.8,29.5 7.8,31.2C8.8,32.9 10.2,34.5 11.8,35.8C12.8,36.5 13,37.7 12.4,38.6L12,40Z" style="fill: rgb(30, 216, 0); fill-rule: nonzero;"></path></g><g transform="matrix(5.75169,0,0,5.75169,-0.950339,-3.26679)"><path d="M32.4,40.2C33,41.2 32.6,42.4 31.6,42.9C28.8,44.2 25.6,44.9 22.6,44.9C19.6,44.9 16.4,44.3 13.6,43.1C12.6,42.7 12.2,41.4 12.8,40.5L13.5,39.2C14,38.2 15.2,37.9 16.3,38.3C18.3,39.1 20.5,39.5 22.7,39.5C24.9,39.5 27,38.9 29,38C30,37.6 31.2,37.9 31.8,38.8L32.6,40.1L32.4,40.2Z" style="fill: rgb(177, 99, 255); fill-rule: nonzero;"></path></g><g transform="matrix(5.75169,0,0,5.75169,-0.950339,-3.26679)"><path d="M42.5,22.8C43.5,22.8 44.5,23.7 44.5,24.8C44.2,27.8 43.5,30.7 41.9,33.3C40.3,35.9 38.5,38.3 36.2,40.1C35.2,40.8 34.2,40.5 33.5,39.6L32.7,38.3C32.1,37.4 32.4,36.1 33.2,35.4C34.8,34.1 36.2,32.4 37.2,30.6C38.2,28.8 38.8,26.8 39.2,24.7C39.3,23.6 40.2,22.7 41.2,22.7L42.7,22.7L42.5,22.8Z" style="fill: rgb(255, 99, 211); fill-rule: nonzero;"></path></g><g transform="matrix(5.75169,0,0,5.75169,94.7573,169.859)"><text x="0px" y="0px" style="font-family: &quot;Noto Sans Lao&quot;, sans-serif; font-size: 22px; fill: rgb(78, 78, 78);"></text></g></svg>