<svg width="48px" height="48px" viewBox="0 0 256 256" version="1.1" xmlns="http://www.w3.org/2000/svg" xml:space="preserve" class="svelte-13r55oh" style="fill-rule: evenodd; clip-rule: evenodd; stroke-linejoin: round; stroke-miterlimit: 2;"><g transform="matrix(5.75257,0,0,5.75257,-965.282,-3.40833)"><circle cx="189.9" cy="22.8" r="22.1" style="fill: white;"></circle></g><g transform="matrix(5.75257,0,0,5.75257,-965.282,-3.40833)"><path d="M179.8,5.4C179.2,4.4 179.6,3.2 180.6,2.7C183.4,1.4 186.6,0.7 189.6,0.6C193.4,0.5 197.1,1.4 200.6,3.2C204.1,5 206.8,7.6 208.8,10.8C210.5,13.4 211.6,16.4 212.1,19.4C212.3,20.5 211.4,21.4 210.3,21.5L208.8,21.5C207.8,21.6 206.8,20.7 206.6,19.6C206.2,17.5 205.4,15.4 204.2,13.6C202.7,11.2 200.5,9.3 198,7.9C195.5,6.5 192.7,5.9 189.8,5.9C187.6,5.9 185.5,6.4 183.5,7.3C182.5,7.7 181.3,7.4 180.7,6.5L179.9,5.2L179.8,5.4Z" style="fill: rgb(255, 199, 0); fill-rule: nonzero;"></path></g><g transform="matrix(5.75257,0,0,5.75257,-965.282,-3.40833)"><path d="M180,40.2C179.4,41.2 178.2,41.5 177.3,40.9C174.8,39.1 172.7,36.9 171.1,34.2C169.1,31 168.1,27.4 167.9,23.6C167.7,19.8 168.6,16.1 170.2,12.8C171.6,10.1 173.5,7.6 175.9,5.7C176.7,5 177.9,5.2 178.6,6.1L179.6,7.4C180.2,8.3 180,9.5 179.2,10.3C177.6,11.7 176.2,13.4 175.2,15.3C173.9,17.8 173.2,20.6 173.5,23.4C173.8,26.2 174.5,28.9 175.9,31.3C176.9,33.1 178.4,34.7 180.1,36C181.1,36.7 181.3,37.9 180.8,38.8L180,40.1L180,40.2Z" style="fill: rgb(255, 107, 107); fill-rule: nonzero;"></path></g><g transform="matrix(5.75257,0,0,5.75257,-965.282,-3.40833)"><path d="M210,22.8C211,22.8 212,23.7 212,24.8C211.7,27.9 210.8,30.9 209.3,33.6C207.5,36.9 204.8,39.7 201.6,41.7C198.4,43.7 194.6,44.8 190.9,45C187.9,45.1 184.7,44.6 181.9,43.5C180.9,43.1 180.5,41.9 180.9,40.9L181.6,39.5C182.1,38.5 183.3,38.1 184.3,38.5C186.3,39.2 188.5,39.6 190.6,39.5C193.4,39.4 196.2,38.5 198.6,37C201,35.5 203,33.4 204.4,31C205.4,29.1 206.1,27 206.4,24.9C206.5,23.8 207.4,22.9 208.4,22.9L210,22.8Z" style="fill: rgb(0, 164, 216); fill-rule: nonzero;"></path></g><g transform="matrix(5.75257,0,0,5.75257,94.6546,169.744)"><text x="0px" y="0px" style="font-family: &quot;Noto Sans Lao&quot;, sans-serif; font-size: 22px; fill: rgb(78, 78, 78);"></text></g></svg>