<svg width="48px" height="48px" viewBox="0 0 256 256" version="1.1" xmlns="http://www.w3.org/2000/svg" xml:space="preserve" class="svelte-13r55oh" style="fill-rule: evenodd; clip-rule: evenodd; stroke-linejoin: round; stroke-miterlimit: 2;"><g transform="matrix(1.39456,-5.5788,5.5788,1.39456,-342.87,1467.79)"><circle cx="245.8" cy="22.8" r="22.1" style="fill: white;"></circle></g><g transform="matrix(5.75075,0,0,5.75075,-1286.37,-2.85574)"><path d="M225.7,22.1C224.7,22.1 223.7,21.1 223.9,20C224.5,15 226.9,10.4 230.4,6.9C234.4,2.9 239.9,0.6 245.6,0.5C251.3,0.4 256.8,2.5 261,6.4C264.7,9.8 267,14.4 267.8,19.3C268,20.4 267.1,21.3 266,21.4L264.5,21.5C263.5,21.6 262.5,20.7 262.3,19.6C261.7,16.1 259.9,12.8 257.3,10.4C254.3,7.5 250,5.9 245.8,5.9C241.6,5.9 237.4,7.7 234.4,10.7C231.8,13.2 230.2,16.5 229.6,20C229.4,21.1 228.6,22 227.4,21.9L225.9,21.9L225.7,22.1Z" style="fill: rgb(255, 199, 0); fill-rule: nonzero;"></path></g><g transform="matrix(5.75075,0,0,5.75075,-1286.37,-2.85574)"><path d="M266,22.8C267,22.8 268,23.7 268,24.8C267.5,29.9 265.4,34.6 261.8,38.3C257.8,42.4 252.3,44.8 246.5,45C240.7,45.2 235.1,43 230.9,39.1C227.2,35.6 224.9,31 224.1,25.9C223.9,24.8 224.8,23.9 225.9,23.8L227.4,23.7C228.4,23.6 229.4,24.5 229.6,25.6C230.2,29.2 232,32.5 234.6,35C237.8,38 242,39.6 246.3,39.5C250.6,39.4 254.8,37.6 257.8,34.5C260.4,31.9 262,28.5 262.4,24.9C262.5,23.8 263.4,22.9 264.4,22.9L265.9,22.9L266,22.8Z" style="fill: rgb(255, 107, 107); fill-rule: nonzero;"></path></g><g transform="matrix(5.75075,0,0,5.75075,94.6183,170.242)"><text x="0px" y="0px" style="font-family: &quot;Noto Sans Lao&quot;, sans-serif; font-size: 22px; fill: rgb(78, 78, 78);"></text></g></svg>