<?xml version="1.0" encoding="utf-8"?>
<!-- Generator: Adobe Illustrator 23.0.1, SVG Export Plug-In . SVG Version: 6.00 Build 0)  -->
<svg version="1.1" id="Layer_1" xmlns="http://www.w3.org/2000/svg" xmlns:xlink="http://www.w3.org/1999/xlink" x="0px" y="0px"
	 viewBox="0 0 379.91 420.2" style="enable-background:new 0 0 379.91 420.2;" xml:space="preserve">
<style type="text/css">
	.st0{fill:#F16A21;}
	.st1{fill:#E21E26;}
	.st2{fill:#E71E25;}
</style>
<g>
	<g>
		<path class="st0" d="M180.5,145.97c-0.32-0.35-0.6-0.58-0.77-0.87c-1.45-2.42-2.88-4.85-4.33-7.28c-0.36-0.61-0.48-1.22,0.23-1.61
			c0.7-0.38,1.18,0,1.55,0.62c1.43,2.43,2.9,4.85,4.29,7.3c0.19,0.34,0.18,0.91,0.03,1.29C181.41,145.68,180.9,145.77,180.5,145.97"
			/>
		<path class="st0" d="M196.83,142.6c-0.33,0.29-0.53,0.55-0.81,0.71c-2.48,1.42-4.96,2.82-7.45,4.22c-0.61,0.34-1.19,0.35-1.57-0.3
			c-0.38-0.66-0.05-1.13,0.55-1.47c2.49-1.4,4.96-2.83,7.47-4.19c0.34-0.19,0.94-0.14,1.32,0.03
			C196.6,141.71,196.66,142.22,196.83,142.6"/>
		<path class="st0" d="M185.43,137.66c0.35-1.35,0.72-2.69,1.07-4.04c0.17-0.67,0.52-1.1,1.27-0.9c0.74,0.2,0.87,0.75,0.7,1.41
			c-0.73,2.75-1.46,5.51-2.19,8.26c-0.18,0.67-0.61,1.06-1.32,0.85c-0.67-0.2-0.82-0.71-0.65-1.36
			C184.7,140.47,185.06,139.06,185.43,137.66"/>
		<path class="st1" d="M171.67,206.5c-3.47-0.93-5.8-2.59-7.6-4.9c-1.27-1.64-2.43-3.39-3.46-5.18c-1.61-2.79-3.18-5.6-4.55-8.5
			c-1.43-3.02-1.15-6.06,0.28-9.06c2.34-4.88,4.64-9.79,6.76-14.76c1.51-3.52,1.76-7.27,0.89-11.06c-0.55-2.45-1.14-4.89-1.71-7.34
			c-0.36-1.55,0.36-2.7,1.92-3.07c2.89-0.69,5.84,0.61,6.85,3.44c1.29,3.61,2.99,7.1,3.48,10.93c0.23,1.8,0.32,3.62,0.45,5.42
			c0.08,1.06,0.7,1.42,1.63,0.89c2.9-1.64,5.79-3.3,8.69-4.94c5.62-3.18,11.24-6.36,16.86-9.54c2.45-1.39,5.25-0.67,6.62,1.67
			c1.34,2.3,0.58,5-1.84,6.37c-7.47,4.24-14.95,8.46-22.42,12.7c-0.31,0.17-0.72,0.37-0.82,0.64c-0.12,0.33-0.09,0.98,0.11,1.11
			c0.36,0.22,1.01,0.34,1.36,0.16c1.48-0.73,2.89-1.59,4.33-2.41l0.47-0.27c1.54-0.87,2.13-0.78,3.29,0.6
			c1.18,1.4,1.57,2.99,0.85,4.68c-0.25,0.58-0.74,1.16-1.28,1.5c-1.6,1-3.3,1.85-4.91,2.84c-0.39,0.24-0.74,0.81-0.77,1.25
			c-0.05,0.69,0.86,0.99,1.61,0.57c1.73-0.96,3.46-1.93,5.16-2.96c0.6-0.37,1.11-0.34,1.69-0.05c2.35,1.12,3.38,4.08,2.17,6.34
			c-0.19,0.34-0.53,0.64-0.88,0.84c-1.63,0.96-3.28,1.88-4.93,2.81c-0.64,0.36-1.11,0.78-0.7,1.57c0.32,0.61,0.9,0.67,1.73,0.2
			c1.63-0.91,3.27-1.79,4.85-2.77c0.86-0.54,1.59-0.43,2.36,0.05c2.9,1.82,2.64,6-0.08,7.51c-6.59,3.66-13.05,7.55-19.57,11.32
			C177.61,206.81,174.44,207.2,171.67,206.5"/>
		<path class="st1" d="M246.34,132.76c0-0.19,0-0.38,0-0.57c-0.02-0.86-0.19-1.69-0.45-2.5c-0.49-1.54-1.44-2.75-2.7-3.74
			c-0.68-0.53-1.43-0.94-2.17-1.37c-20.12-11.4-40.24-22.81-60.36-34.22c-1.04-0.59-2.06-1.2-3.15-1.68
			c-0.13-0.05-0.23-0.15-0.39-0.26c-0.03-0.26-0.08-0.54-0.08-0.82c-0.01-2.12-0.01-4.24,0-6.37c0-0.28-0.01-0.57,0.05-0.85
			c0.13-0.61,0.12-1.22,0.12-1.83c0-3.87,0-7.74,0-11.6c0-1.91,0.03-1.72-1.82-1.75c-2.01-0.03-4.01,0.1-6.01,0.22
			c-1.67,0.09-3.34,0.2-5,0.38c-2.89,0.32-5.77,0.74-8.64,1.28c-5.78,1.1-11.42,2.66-16.92,4.72c-14.38,5.39-26.95,13.5-37.69,24.36
			c-11.64,11.78-19.97,25.54-24.94,41.27c-1.74,5.5-2.98,11.11-3.75,16.82c-0.33,2.43-0.61,4.87-0.73,7.32
			c-0.25,4.9-0.27,9.8,0.15,14.7c0.26,3.06,0.64,6.09,1.15,9.12c0.78,4.61,1.9,9.14,3.33,13.59c7.99,24.93,25.54,46.1,48.71,58.8
			c8.74,4.79,17.99,8.25,27.74,10.42c1.49,0.33,2.99,0.61,4.49,0.88c0.86,0.16,1.06,0.04,1.05-0.81c0-0.19,0-0.38,0-0.57
			c0-4.48,0-8.96,0-13.44c0-1.56,0.12-1.41-1.41-1.73c-5.57-1.17-10.97-2.87-16.21-5.07c-22.39-9.44-39.95-27.75-48.27-50.34
			c-1.8-4.88-3.16-9.88-4.03-15.01c-0.37-2.14-0.65-4.29-0.87-6.45c-0.24-2.35-0.35-4.7-0.42-7.06c-0.09-3.21,0.12-6.41,0.42-9.61
			c0.25-2.72,0.65-5.43,1.16-8.12c1.25-6.56,3.27-12.88,6.02-18.98c10.31-22.86,30.08-40.28,54.24-47.79c3.96-1.24,8-2.16,12.1-2.84
			c0.14-0.02,0.29-0.03,0.43-0.04c0.16-0.01,0.41,0.17,0.42,0.31c0.03,0.28,0.06,0.56,0.06,0.84c0,3.44,0,6.89,0,10.33
			c0,0.24-0.01,0.47-0.03,0.71c-0.02,0.19-0.11,0.37-0.28,0.47c-0.41,0.25-0.82,0.49-1.23,0.72c-12.18,6.78-24.37,13.57-36.55,20.35
			c-4.95,2.75-9.9,5.5-14.85,8.26c-0.62,0.35-1.24,0.71-1.81,1.14c-1.58,1.18-2.59,2.73-2.99,4.67c-0.16,0.8-0.19,1.59-0.19,2.39
			c-0.01,8.02-0.01,16.04-0.01,24.06c0,0.24,0,0.47,0.01,0.71c0.09,2.49,1.07,4.56,3,6.18c0.66,0.55,1.39,1,2.13,1.43
			c9.32,5.37,18.63,10.75,27.95,16.12c5.56,3.2,11.12,6.4,16.69,9.59c-0.08-0.17-0.16-0.33-0.24-0.5
			c-1.68-3.57-1.59-7.38,0.29-11.31c1.54-3.23,2.92-6.16,4.21-8.99c-9.45-5.44-18.9-10.87-28.35-16.31
			c-0.49-0.28-0.99-0.57-1.47-0.88c-1.33-0.88-2.43-1.99-3.18-3.39c-1.64-3.05-1.54-6.06,0.26-9.01c0.68-1.11,1.58-2.01,2.65-2.75
			c0.51-0.35,1.04-0.67,1.58-0.97c9.01-5.15,18.02-10.28,27.03-15.43c4.42-2.52,8.84-5.06,13.26-7.58c0.66-0.37,1.34-0.73,2.05-1
			c1.85-0.72,3.72-0.7,5.6-0.03c0.81,0.29,1.56,0.72,2.3,1.14c16.7,9.53,33.4,19.06,50.1,28.58c4.13,2.36,8.27,4.71,12.4,7.07
			c0.5,0.28,1.01,0.53,1.52,0.79c0.39,0.2,0.81,0.26,1.25,0.22c0.36-0.03,0.63-0.21,0.82-0.5c0.1-0.16,0.17-0.33,0.23-0.51
			c0.23-0.59,0.21-1.2,0.21-1.82C246.34,141.81,246.34,137.28,246.34,132.76"/>
		<path class="st0" d="M279.1,159.45c-0.25-2.91-0.65-5.81-1.16-8.69c-0.85-4.89-2.07-9.68-3.66-14.39
			c-6.23-18.38-16.85-33.85-31.84-46.34c-13.99-11.65-30.03-19.06-48.01-22.42c-0.51-0.09-1.04-0.14-1.56-0.21
			c-0.1-0.01-0.28,0.15-0.29,0.26c-0.02,0.23-0.05,0.47-0.05,0.7c0,4.39,0,8.78,0,13.16c0,0.28,0.04,0.56,0.05,0.8
			c0.34,0.31,0.73,0.35,1.1,0.43c3.36,0.7,6.68,1.58,9.93,2.69c16.32,5.53,29.9,14.95,40.7,28.23c7.52,9.24,12.85,19.6,16.07,31.01
			c1.34,4.73,2.26,9.54,2.73,14.44c0.27,2.77,0.47,5.55,0.48,8.33c0.01,1.94-0.06,3.86-0.18,5.8c-0.17,2.73-0.47,5.45-0.88,8.15
			c-0.51,3.36-1.22,6.68-2.16,9.95c-5.07,17.62-14.74,32.31-29.02,43.98c-10.51,8.59-22.46,14.39-35.73,17.52
			c-1.48,0.35-2.99,0.64-4.49,0.92c-1.06,0.19-1.21,0.06-1.21-0.94c-0.01-3.68-0.01-7.36,0-11.04c0-0.19-0.01-0.39,0.04-0.56
			c0.05-0.17,0.14-0.37,0.28-0.46c0.39-0.26,0.81-0.49,1.23-0.73c10.81-6.02,21.63-12.03,32.44-18.05
			c6.07-3.38,12.15-6.75,18.22-10.14c0.62-0.35,1.24-0.71,1.81-1.14c1.42-1.07,2.33-2.46,2.75-4.18c0.21-0.84,0.23-1.68,0.23-2.53
			c0-5.71-0.01-11.42-0.01-17.12c0-2.45,0.02-4.91,0.01-7.36c0-0.71-0.02-1.42-0.14-2.11c-0.36-1.99-1.4-3.59-3.04-4.79
			c-0.61-0.45-1.27-0.84-1.93-1.22c-8.78-5.07-17.56-10.13-26.34-15.2c-1.24-0.72-2.48-1.44-3.72-2.16
			c-0.03,0.2-0.07,0.39-0.13,0.59c-0.5,1.88-1.77,3.48-3.58,4.51c-3.91,2.22-7.83,4.43-11.74,6.65c-0.66,0.37-1.32,0.75-1.98,1.12
			c0.32,0.29,0.56,0.59,0.75,0.81c5.02,2.89,10.04,5.78,15.06,8.67c3.84,2.2,7.68,4.4,11.51,6.62c0.7,0.4,1.4,0.82,2.03,1.32
			c2.86,2.27,4.18,6.06,2.93,9.81c-0.46,1.37-1.23,2.55-2.25,3.58c-0.71,0.71-1.5,1.31-2.38,1.81c-1.37,0.77-2.72,1.56-4.09,2.33
			c-11.59,6.58-23.25,13.04-34.67,19.92c-0.86,0.52-1.75,0.96-2.69,1.32c-0.89,0.34-1.81,0.62-2.76,0.72
			c-1.93,0.22-3.82,0.01-5.62-0.71c-0.66-0.27-1.31-0.56-1.95-0.88c-0.59-0.3-1.17-0.64-1.74-0.98c-5.73-3.32-11.43-6.66-17.18-9.95
			c-14.22-8.12-28.45-16.21-42.68-24.31c-0.33-0.19-0.66-0.39-1-0.54c-0.35-0.15-0.71-0.29-1.08-0.36c-0.81-0.18-1.42,0.2-1.65,0.96
			c-0.16,0.55-0.22,1.11-0.22,1.68c0.01,4.62,0,9.25,0.01,13.87c0,0.56,0.08,1.12,0.15,1.68c0.3,2.24,1.47,3.96,3.32,5.23
			c0.47,0.32,0.97,0.6,1.47,0.89c20.7,11.73,41.41,23.47,62.11,35.2c0.45,0.25,0.91,0.52,1.37,0.77c0.28,0.15,0.42,0.39,0.44,0.68
			c0.02,0.47,0.03,0.94,0.03,1.41c0,6.65,0.01,13.31,0,19.95c0,0.85,0.07,1.7,0.16,2.54c0.02,0.17,0.2,0.34,0.39,0.35
			c0.34,0.03,0.67,0.06,1,0.06c3.54,0.02,7.07-0.1,10.59-0.45c2.52-0.25,5.02-0.58,7.52-1.01c4.33-0.73,8.6-1.73,12.81-3
			c21.73-6.58,40.82-20.14,54.04-38.38c7.79-10.74,13.3-22.53,16.49-35.36c0.76-3.07,1.38-6.17,1.85-9.29c0.3-2,0.54-4.02,0.71-6.04
			c0.25-2.87,0.4-5.74,0.43-8.62C279.58,165.94,279.38,162.7,279.1,159.45"/>
	</g>
	<g>
		<polygon class="st2" points="168.75,290.88 190.37,290.88 190.37,298.55 177.03,298.55 177.03,306.37 190.37,306.37 
			190.37,313.92 177.03,313.92 177.03,321.95 190.37,321.95 190.37,329.61 168.75,329.61 		"/>
		<path class="st2" d="M255.83,294.14l-5.26,5.62c-2.77-1.59-4.76-2.39-5.97-2.39c-0.94,0-1.74,0.34-2.42,1.03
			c-0.68,0.69-1.02,1.51-1.02,2.46c0,1.88,1.75,3.51,5.26,4.89c2.57,1.07,4.51,2.03,5.83,2.9c1.31,0.86,2.41,2.06,3.3,3.59
			c0.89,1.53,1.33,3.19,1.33,4.97c0,3.28-1.36,6.13-4.08,8.55c-2.72,2.42-5.93,3.64-9.63,3.64c-4.06,0-8.08-1.86-12.04-5.59
			l5.56-6.31c2.49,2.5,4.82,3.75,6.99,3.75c1.02,0,1.99-0.44,2.93-1.32c0.94-0.88,1.4-1.81,1.4-2.77c0-1.99-2.16-3.75-6.48-5.27
			c-2.47-0.88-4.22-1.7-5.26-2.46c-1.04-0.77-1.91-1.88-2.61-3.35c-0.71-1.46-1.06-2.96-1.06-4.49c0-3.39,1.14-6.15,3.41-8.26
			c2.27-2.11,5.24-3.17,8.9-3.17C249.24,290.16,252.88,291.49,255.83,294.14"/>
		<path class="st2" d="M192.51,329.6l14.56-39.45h9.03l14.53,39.45h-8.7l-3.38-9.43h-14.33l-3.13,9.43H192.51z M206.43,313.53h10.6
			c-1.08-2.9-2.08-5.59-3.01-8.1c-0.93-2.5-1.59-4.26-1.96-5.27c-0.38-1.02-0.58-1.56-0.61-1.64
			C211.08,299.91,209.4,304.91,206.43,313.53"/>
		<path class="st2" d="M270.12,329.57v-14.6l-14.34-24.4h8.97c5.99,10.68,9.17,16.38,9.54,17.08l9.67-17.08h8.72l-14.52,24.4v14.61
			H270.12z"/>
		<path class="st2" d="M83.55,294.68l-5.3,5.66c-2.79-1.6-4.8-2.4-6.02-2.4c-0.94,0-1.76,0.35-2.44,1.04
			c-0.68,0.69-1.02,1.52-1.02,2.47c0,1.9,1.77,3.54,5.3,4.93c2.59,1.08,4.55,2.05,5.87,2.92c1.33,0.87,2.43,2.08,3.33,3.62
			c0.89,1.54,1.34,3.21,1.34,5.01c0,3.3-1.37,6.17-4.11,8.62c-2.74,2.44-5.97,3.66-9.71,3.66c-4.09,0-8.14-1.88-12.13-5.63l5.6-6.36
			c2.51,2.52,4.85,3.78,7.04,3.78c1.02,0,2.01-0.44,2.95-1.33c0.94-0.89,1.41-1.82,1.41-2.79c0-2.01-2.18-3.78-6.53-5.31
			c-2.49-0.88-4.25-1.71-5.3-2.48c-1.04-0.77-1.92-1.9-2.63-3.37c-0.71-1.48-1.07-2.98-1.07-4.53c0-3.42,1.14-6.2,3.43-8.33
			c2.29-2.13,5.28-3.2,8.97-3.2C76.91,290.67,80.58,292,83.55,294.68"/>
		<path class="st2" d="M117.09,293.25v9.38c-4.27-2.5-8.02-3.75-11.23-3.75c-3.21,0-5.78,1.08-7.71,3.22
			c-1.93,2.15-2.89,5.04-2.89,8.68c0,3.44,1.01,6.19,3.04,8.25c2.03,2.06,4.74,3.09,8.13,3.09c2.97,0,6.52-1.16,10.66-3.49v9.32
			c-4.64,1.5-8.5,2.26-11.59,2.26c-5.32,0-9.83-1.9-13.54-5.7c-3.71-3.8-5.57-8.44-5.57-13.91c0-5.57,1.89-10.28,5.67-14.14
			c3.78-3.86,8.38-5.79,13.8-5.79C109.35,290.67,113.09,291.53,117.09,293.25"/>
		<polygon class="st2" points="146.36,291.19 154.16,291.19 154.16,329.68 146.4,329.68 129.49,304.77 129.49,329.68 121.52,329.68 
			121.52,291.19 129.4,291.19 146.36,315.93 		"/>
	</g>
</g>
</svg>
