<?xml version="1.0" encoding="utf-8"?>
<!-- Generator: Adobe Illustrator 23.0.1, SVG Export Plug-In . SVG Version: 6.00 Build 0)  -->
<svg version="1.1" id="Layer_1" xmlns="http://www.w3.org/2000/svg" xmlns:xlink="http://www.w3.org/1999/xlink" x="0px" y="0px"
	 viewBox="0 0 1371.65 345.59" style="enable-background:new 0 0 1371.65 345.59;" xml:space="preserve">
<style type="text/css">
	.st0{clip-path:url(#SVGID_2_);}
	.st1{clip-path:url(#SVGID_4_);fill:#F7F7F7;}
	.st2{clip-path:url(#SVGID_4_);fill:#F6F6F6;}
	.st3{clip-path:url(#SVGID_4_);fill:#F5F5F5;}
	.st4{clip-path:url(#SVGID_4_);fill:#F4F4F4;}
	.st5{clip-path:url(#SVGID_4_);fill:#F3F3F3;}
	.st6{clip-path:url(#SVGID_4_);fill:#F2F2F2;}
	.st7{clip-path:url(#SVGID_4_);fill:#F1F1F1;}
	.st8{clip-path:url(#SVGID_4_);fill:#F0F0F0;}
	.st9{clip-path:url(#SVGID_4_);fill:#EFEFEF;}
	.st10{clip-path:url(#SVGID_4_);fill:#EEEEEE;}
	.st11{clip-path:url(#SVGID_4_);fill:#EDEDED;}
	.st12{clip-path:url(#SVGID_4_);fill:#ECECEC;}
	.st13{clip-path:url(#SVGID_4_);fill:#EBEBEB;}
	.st14{clip-path:url(#SVGID_4_);fill:#EAEAEA;}
	.st15{clip-path:url(#SVGID_4_);fill:#E9E9E9;}
	.st16{clip-path:url(#SVGID_4_);fill:#E8E8E8;}
	.st17{clip-path:url(#SVGID_4_);fill:#E6E7E7;}
	.st18{clip-path:url(#SVGID_4_);fill:#E5E6E6;}
	.st19{clip-path:url(#SVGID_4_);fill:#E4E5E5;}
	.st20{clip-path:url(#SVGID_4_);fill:#E3E4E4;}
	.st21{clip-path:url(#SVGID_4_);fill:#E2E3E3;}
	.st22{clip-path:url(#SVGID_4_);fill:#E1E2E2;}
	.st23{clip-path:url(#SVGID_4_);fill:#E0E1E1;}
	.st24{clip-path:url(#SVGID_4_);fill:#DFE0E0;}
	.st25{clip-path:url(#SVGID_4_);fill:#DEDFDF;}
	.st26{clip-path:url(#SVGID_4_);fill:#DDDEDE;}
	.st27{clip-path:url(#SVGID_4_);fill:#DCDDDD;}
	.st28{clip-path:url(#SVGID_4_);fill:#DBDCDC;}
	.st29{clip-path:url(#SVGID_4_);fill:#DADBDB;}
	.st30{clip-path:url(#SVGID_4_);fill:#D9DADA;}
	.st31{clip-path:url(#SVGID_4_);fill:#D8D9D9;}
	.st32{clip-path:url(#SVGID_4_);fill:#D7D8D8;}
	.st33{clip-path:url(#SVGID_4_);fill:#D6D7D7;}
	.st34{clip-path:url(#SVGID_4_);fill:#D8DADA;}
	.st35{clip-path:url(#SVGID_4_);fill:#D9DBDB;}
	.st36{clip-path:url(#SVGID_4_);fill:#DADCDC;}
	.st37{clip-path:url(#SVGID_4_);fill:#DBDDDD;}
	.st38{clip-path:url(#SVGID_4_);fill:#DCDEDE;}
	.st39{clip-path:url(#SVGID_4_);fill:#DCDFDF;}
	.st40{clip-path:url(#SVGID_4_);fill:#DDE0E0;}
	.st41{clip-path:url(#SVGID_4_);fill:#DEE1E1;}
	.st42{clip-path:url(#SVGID_4_);fill:#DFE2E2;}
	.st43{clip-path:url(#SVGID_4_);fill:#E0E3E3;}
	.st44{clip-path:url(#SVGID_4_);fill:#E0E4E4;}
	.st45{clip-path:url(#SVGID_4_);fill:#E1E5E5;}
	.st46{clip-path:url(#SVGID_4_);fill:#E2E7E7;}
	.st47{clip-path:url(#SVGID_4_);fill:#E3E8E8;}
	.st48{clip-path:url(#SVGID_4_);fill:#E4E9E9;}
	.st49{clip-path:url(#SVGID_4_);fill:#E4EAEA;}
	.st50{clip-path:url(#SVGID_4_);fill:#E5EBEB;}
	.st51{clip-path:url(#SVGID_4_);fill:#E6ECEC;}
	.st52{clip-path:url(#SVGID_4_);fill:#E7EDED;}
	.st53{clip-path:url(#SVGID_4_);fill:#E8EEEE;}
	.st54{clip-path:url(#SVGID_4_);fill:#E8EFEF;}
	.st55{clip-path:url(#SVGID_4_);fill:#E9F0F0;}
	.st56{clip-path:url(#SVGID_4_);fill:#EAF1F1;}
	.st57{clip-path:url(#SVGID_4_);fill:#EBF2F2;}
	.st58{clip-path:url(#SVGID_4_);fill:#ECF3F3;}
	.st59{clip-path:url(#SVGID_4_);fill:#ECF4F4;}
	.st60{clip-path:url(#SVGID_4_);fill:#EDF5F5;}
	.st61{clip-path:url(#SVGID_4_);fill:#EEF6F6;}
	.st62{clip-path:url(#SVGID_4_);fill:#EDF4F4;}
	.st63{clip-path:url(#SVGID_4_);fill:#EAF0F0;}
	.st64{clip-path:url(#SVGID_4_);fill:#E9EFEF;}
	.st65{clip-path:url(#SVGID_4_);fill:#E7ECEC;}
	.st66{clip-path:url(#SVGID_4_);fill:#E6EBEB;}
	.st67{clip-path:url(#SVGID_4_);fill:#E5E9EA;}
	.st68{clip-path:url(#SVGID_4_);fill:#E4E8E9;}
	.st69{clip-path:url(#SVGID_4_);fill:#E4E7E8;}
	.st70{clip-path:url(#SVGID_4_);fill:#E3E6E7;}
	.st71{clip-path:url(#SVGID_4_);fill:#E2E5E6;}
	.st72{clip-path:url(#SVGID_4_);fill:#E1E4E5;}
	.st73{clip-path:url(#SVGID_4_);fill:#E1E3E4;}
	.st74{clip-path:url(#SVGID_4_);fill:#E0E2E3;}
	.st75{clip-path:url(#SVGID_4_);fill:#DFE1E2;}
	.st76{clip-path:url(#SVGID_4_);fill:#DEE0E1;}
	.st77{clip-path:url(#SVGID_4_);fill:#DEDFE0;}
	.st78{clip-path:url(#SVGID_4_);fill:#DDDEDF;}
	.st79{clip-path:url(#SVGID_4_);fill:#DFE0E1;}
	.st80{clip-path:url(#SVGID_4_);fill:#E0E1E2;}
	.st81{clip-path:url(#SVGID_4_);fill:#E1E2E3;}
	.st82{clip-path:url(#SVGID_4_);fill:#E2E3E4;}
	.st83{clip-path:url(#SVGID_4_);fill:#E3E4E5;}
	.st84{clip-path:url(#SVGID_4_);fill:#E4E5E6;}
	.st85{clip-path:url(#SVGID_4_);fill:#E5E6E7;}
	.st86{clip-path:url(#SVGID_4_);fill:#E6E7E8;}
	.st87{clip-path:url(#SVGID_4_);fill:#E7E8E9;}
	.st88{clip-path:url(#SVGID_4_);fill:#E8E9EA;}
	.st89{clip-path:url(#SVGID_4_);fill:#E9EAEB;}
	.st90{clip-path:url(#SVGID_4_);fill:#EBEBEC;}
	.st91{clip-path:url(#SVGID_4_);fill:#F8F8F8;}
	.st92{clip-path:url(#SVGID_4_);fill:#F9F9F9;}
	.st93{clip-path:url(#SVGID_4_);fill:#FAFAFA;}
	.st94{clip-path:url(#SVGID_4_);fill:#FCFCFC;}
	.st95{clip-path:url(#SVGID_4_);fill:#FDFDFD;}
	.st96{clip-path:url(#SVGID_4_);fill:#FEFEFE;}
	.st97{clip-path:url(#SVGID_4_);fill:#FFFFFF;}
	.st98{clip-path:url(#SVGID_4_);fill:#FBFBFB;}
	.st99{clip-path:url(#SVGID_4_);fill:#E7E7E7;}
	.st100{clip-path:url(#SVGID_4_);fill:#E6E6E7;}
	.st101{clip-path:url(#SVGID_4_);fill:#E5E5E6;}
	.st102{clip-path:url(#SVGID_4_);fill:#E4E4E5;}
	.st103{clip-path:url(#SVGID_4_);fill:#E3E3E4;}
	.st104{clip-path:url(#SVGID_4_);fill:#E2E2E3;}
	.st105{clip-path:url(#SVGID_4_);fill:#D7D9DA;}
	.st106{clip-path:url(#SVGID_4_);fill:#D6D8D9;}
	.st107{clip-path:url(#SVGID_4_);fill:#D5D7D8;}
	.st108{clip-path:url(#SVGID_4_);fill:#D4D6D7;}
	.st109{clip-path:url(#SVGID_4_);fill:#D3D5D6;}
	.st110{clip-path:url(#SVGID_4_);fill:#D2D4D5;}
	.st111{clip-path:url(#SVGID_4_);fill:#D1D3D4;}
	.st112{clip-path:url(#SVGID_4_);fill:#D4D6D6;}
	.st113{clip-path:url(#SVGID_4_);fill:#D7D7D8;}
	.st114{clip-path:url(#SVGID_4_);fill:#D8D8D9;}
	.st115{clip-path:url(#SVGID_4_);fill:#D9D9D9;}
	.st116{clip-path:url(#SVGID_4_);fill:#DADADA;}
	.st117{fill:#EEEEEE;}
</style>
<g>
	<defs>
		<rect id="SVGID_1_" x="67.32" y="24.88" width="1243.48" height="274.35"/>
	</defs>
	<clipPath id="SVGID_2_">
		<use xlink:href="#SVGID_1_"  style="overflow:visible;"/>
	</clipPath>
	<g class="st0">
		<g>
			<defs>
				<path id="SVGID_3_" d="M1356.34,714.84H48.2c-24.75,0-45-20.25-45-45V88.7c0-24.75,20.25-45,45-45h1308.14
					c24.75,0,45,20.25,45,45v581.14C1401.34,694.59,1381.09,714.84,1356.34,714.84z"/>
			</defs>
			<clipPath id="SVGID_4_">
				<use xlink:href="#SVGID_3_"  style="overflow:visible;"/>
			</clipPath>
			<path class="st1" d="M3.2,43.7v671.14V43.7z"/>
			<path class="st1" d="M3.2,43.7v671.14V43.7z"/>
			<path class="st2" d="M3.2,43.7v671.14V43.7z"/>
			<path class="st3" d="M3.2,43.7v671.14V43.7z"/>
			<path class="st4" d="M3.2,43.7v671.14V43.7z"/>
			<path class="st5" d="M3.2,43.7v671.14V43.7z"/>
			<path class="st6" d="M3.2,43.7v671.14V43.7z"/>
			<path class="st7" d="M3.2,43.7v671.14V43.7z"/>
			<path class="st8" d="M3.2,43.7v671.14V43.7z"/>
			<path class="st9" d="M3.2,43.7v671.14V43.7z"/>
			<path class="st10" d="M3.2,43.7v671.14V43.7z"/>
			<path class="st11" d="M3.2,43.7v671.14V43.7z"/>
			<path class="st12" d="M3.2,43.7v671.14V43.7z"/>
			<path class="st13" d="M3.2,43.7v671.14V43.7z"/>
			<path class="st14" d="M3.2,43.7v671.14V43.7z"/>
			<path class="st15" d="M3.2,43.7v671.14V43.7z"/>
			<path class="st16" d="M3.2,43.7v671.14V43.7z"/>
			<path class="st17" d="M3.2,43.7v671.14V43.7z"/>
			<path class="st18" d="M3.2,43.7v671.14V43.7z"/>
			<path class="st19" d="M3.2,43.7v671.14V43.7z"/>
			<path class="st20" d="M3.2,43.7v671.14V43.7z"/>
			<path class="st21" d="M3.2,43.7v671.14V43.7z"/>
			<path class="st22" d="M3.2,43.7v671.14V43.7z"/>
			<path class="st23" d="M3.2,43.7v671.14V43.7z"/>
			<path class="st24" d="M3.2,43.7v671.14V43.7z"/>
			<path class="st25" d="M3.2,43.7v671.14V43.7z"/>
			<path class="st26" d="M3.2,43.7v671.14V43.7z"/>
			<path class="st27" d="M3.2,43.7v671.14V43.7z"/>
			<path class="st28" d="M3.2,43.7v671.14V43.7z"/>
			<path class="st29" d="M3.2,43.7v671.14V43.7z"/>
			<path class="st30" d="M3.2,43.7v671.14V43.7z"/>
			<path class="st31" d="M3.2,43.7v671.14V43.7z"/>
			<path class="st32" d="M3.2,43.7v671.14V43.7z"/>
			<path class="st33" d="M3.2,43.7v671.14V43.7z"/>
			<path class="st33" d="M3.2,43.7v671.14V43.7z"/>
			<path class="st32" d="M3.2,43.7v671.14V43.7z"/>
			<path class="st31" d="M3.2,43.7v671.14V43.7z"/>
			<path class="st34" d="M3.2,43.7v671.14V43.7z"/>
			<path class="st35" d="M3.2,43.7v671.14V43.7z"/>
			<path class="st36" d="M3.2,43.7v671.14V43.7z"/>
			<path class="st37" d="M3.2,43.7v671.14V43.7z"/>
			<path class="st38" d="M3.2,43.7v671.14V43.7z"/>
			<path class="st39" d="M3.2,43.7v671.14V43.7z"/>
			<path class="st40" d="M3.2,43.7v671.14V43.7z"/>
			<path class="st41" d="M3.2,43.7v671.14V43.7z"/>
			<path class="st42" d="M3.2,43.7v671.14V43.7z"/>
			<path class="st43" d="M3.2,43.7v671.14V43.7z"/>
			<path class="st44" d="M3.2,43.7v671.14V43.7z"/>
			<path class="st45" d="M3.2,43.7v671.14V43.7z"/>
			<path class="st46" d="M3.2,43.7v671.14V43.7z"/>
			<path class="st47" d="M3.2,43.7v671.14V43.7z"/>
			<path class="st48" d="M3.2,43.7v671.14V43.7z"/>
			<path class="st49" d="M3.2,43.7v671.14V43.7z"/>
			<path class="st50" d="M3.2,43.7v671.14V43.7z"/>
			<path class="st51" d="M3.2,43.7v671.14V43.7z"/>
			<path class="st52" d="M3.2,43.7v671.14V43.7z"/>
			<path class="st53" d="M3.2,43.7v671.14V43.7z"/>
			<path class="st54" d="M3.2,43.7v671.14V43.7z"/>
			<path class="st55" d="M3.2,43.7v671.14V43.7z"/>
			<path class="st56" d="M3.2,43.7v671.14V43.7z"/>
			<path class="st57" d="M3.2,43.7v671.14V43.7z"/>
			<path class="st58" d="M3.2,43.7v671.14V43.7z"/>
			<path class="st59" d="M3.2,43.7v671.14V43.7z"/>
			<path class="st60" d="M3.2,43.7v671.14V43.7z"/>
			<path class="st61" d="M3.2,43.7v671.14V43.7z"/>
			<path class="st61" d="M3.2,43.7v671.14V43.7z"/>
			<path class="st60" d="M3.2,43.7v671.14V43.7z"/>
			<path class="st62" d="M3.2,43.7v671.14V43.7z"/>
			<path class="st58" d="M3.2,43.7v671.14V43.7z"/>
			<path class="st57" d="M3.2,43.7v671.14V43.7z"/>
			<path class="st56" d="M3.2,43.7v671.14V43.7z"/>
			<path class="st63" d="M3.2,43.7v671.14V43.7z"/>
			<path class="st64" d="M3.2,43.7v671.14V43.7z"/>
			<path class="st53" d="M3.2,43.7v671.14V43.7z"/>
			<path class="st52" d="M3.2,43.7v671.14V43.7z"/>
			<path class="st65" d="M3.2,43.7v671.14V43.7z"/>
			<path class="st66" d="M3.2,43.7v671.14V43.7z"/>
			<path class="st67" d="M3.2,43.7v671.14V43.7z"/>
			<path class="st68" d="M3.2,43.7v671.14V43.7z"/>
			<path class="st69" d="M3.2,43.7v671.14V43.7z"/>
			<path class="st70" d="M3.2,43.7v671.14V43.7z"/>
			<path class="st71" d="M3.2,43.7v671.14V43.7z"/>
			<path class="st72" d="M3.2,43.7v671.14V43.7z"/>
			<path class="st73" d="M3.2,43.7v671.14V43.7z"/>
			<path class="st74" d="M3.2,43.7v671.14V43.7z"/>
			<path class="st75" d="M3.2,43.7v671.14V43.7z"/>
			<path class="st76" d="M3.2,43.7v671.14V43.7z"/>
			<path class="st77" d="M3.2,43.7v671.14V43.7z"/>
			<path class="st78" d="M3.2,43.7v671.14V43.7z"/>
			<rect x="3.2" y="43.7" class="st78" width="5.35" height="671.14"/>
			<rect x="8.55" y="43.7" class="st77" width="5.35" height="671.14"/>
			<rect x="13.9" y="43.7" class="st79" width="5.35" height="671.14"/>
			<rect x="19.26" y="43.7" class="st80" width="5.35" height="671.14"/>
			<rect x="24.61" y="43.7" class="st81" width="5.35" height="671.14"/>
			<rect x="29.96" y="43.7" class="st82" width="5.35" height="671.14"/>
			<rect x="35.31" y="43.7" class="st83" width="5.35" height="671.14"/>
			<rect x="40.66" y="43.7" class="st84" width="5.35" height="671.14"/>
			<rect x="46.02" y="43.7" class="st85" width="5.35" height="671.14"/>
			<rect x="51.37" y="43.7" class="st86" width="5.35" height="671.14"/>
			<rect x="56.72" y="43.7" class="st87" width="5.35" height="671.14"/>
			<rect x="62.07" y="43.7" class="st88" width="5.35" height="671.14"/>
			<rect x="67.42" y="43.7" class="st89" width="5.35" height="671.14"/>
			<rect x="72.77" y="43.7" class="st90" width="5.35" height="671.14"/>
			<rect x="78.13" y="43.7" class="st12" width="5.35" height="671.14"/>
			<rect x="83.48" y="43.7" class="st11" width="5.35" height="671.14"/>
			<rect x="88.83" y="43.7" class="st10" width="5.35" height="671.14"/>
			<rect x="94.18" y="43.7" class="st9" width="5.35" height="671.14"/>
			<rect x="99.53" y="43.7" class="st8" width="5.35" height="671.14"/>
			<rect x="104.89" y="43.7" class="st7" width="5.35" height="671.14"/>
			<rect x="110.24" y="43.7" class="st6" width="5.35" height="671.14"/>
			<rect x="115.59" y="43.7" class="st5" width="5.35" height="671.14"/>
			<rect x="120.94" y="43.7" class="st4" width="5.35" height="671.14"/>
			<rect x="126.29" y="43.7" class="st3" width="5.35" height="671.14"/>
			<rect x="131.65" y="43.7" class="st2" width="5.35" height="671.14"/>
			<rect x="137" y="43.7" class="st1" width="5.35" height="671.14"/>
			<rect x="142.35" y="43.7" class="st91" width="5.35" height="671.14"/>
			<rect x="147.7" y="43.7" class="st91" width="73.2" height="671.14"/>
			<rect x="220.9" y="43.7" class="st92" width="73.2" height="671.14"/>
			<rect x="294.1" y="43.7" class="st93" width="73.2" height="671.14"/>
			<rect x="367.3" y="43.7" class="st94" width="73.2" height="671.14"/>
			<rect x="440.49" y="43.7" class="st95" width="73.2" height="671.14"/>
			<rect x="513.69" y="43.7" class="st96" width="73.2" height="671.14"/>
			<rect x="586.89" y="43.7" class="st97" width="73.2" height="671.14"/>
			<rect x="660.09" y="43.7" class="st97" width="86.23" height="671.14"/>
			<rect x="746.32" y="43.7" class="st96" width="86.23" height="671.14"/>
			<rect x="832.55" y="43.7" class="st94" width="86.23" height="671.14"/>
			<rect x="918.78" y="43.7" class="st98" width="86.23" height="671.14"/>
			<rect x="1005.02" y="43.7" class="st93" width="86.23" height="671.14"/>
			<rect x="1091.25" y="43.7" class="st93" width="15.62" height="671.14"/>
			<rect x="1106.87" y="43.7" class="st92" width="15.62" height="671.14"/>
			<rect x="1122.49" y="43.7" class="st91" width="15.62" height="671.14"/>
			<rect x="1138.11" y="43.7" class="st1" width="15.62" height="671.14"/>
			<rect x="1153.73" y="43.7" class="st2" width="15.62" height="671.14"/>
			<rect x="1169.36" y="43.7" class="st3" width="15.62" height="671.14"/>
			<rect x="1184.98" y="43.7" class="st5" width="15.62" height="671.14"/>
			<rect x="1200.6" y="43.7" class="st6" width="15.62" height="671.14"/>
			<rect x="1216.22" y="43.7" class="st7" width="15.62" height="671.14"/>
			<rect x="1231.84" y="43.7" class="st8" width="15.62" height="671.14"/>
			<rect x="1247.46" y="43.7" class="st9" width="15.62" height="671.14"/>
			<rect x="1263.09" y="43.7" class="st10" width="15.62" height="671.14"/>
			<rect x="1278.71" y="43.7" class="st10" width="4.23" height="671.14"/>
			<rect x="1282.94" y="43.7" class="st11" width="4.23" height="671.14"/>
			<rect x="1287.16" y="43.7" class="st12" width="4.23" height="671.14"/>
			<rect x="1291.39" y="43.7" class="st13" width="4.23" height="671.14"/>
			<rect x="1295.62" y="43.7" class="st14" width="4.23" height="671.14"/>
			<rect x="1299.85" y="43.7" class="st15" width="4.23" height="671.14"/>
			<rect x="1304.08" y="43.7" class="st16" width="4.23" height="671.14"/>
			<rect x="1308.31" y="43.7" class="st99" width="4.23" height="671.14"/>
			<rect x="1312.54" y="43.7" class="st100" width="4.23" height="671.14"/>
			<rect x="1316.76" y="43.7" class="st101" width="4.23" height="671.14"/>
			<rect x="1320.99" y="43.7" class="st102" width="4.23" height="671.14"/>
			<rect x="1325.22" y="43.7" class="st103" width="4.23" height="671.14"/>
			<rect x="1329.45" y="43.7" class="st104" width="4.23" height="671.14"/>
			<rect x="1333.68" y="43.7" class="st80" width="4.23" height="671.14"/>
			<rect x="1337.91" y="43.7" class="st79" width="4.23" height="671.14"/>
			<rect x="1342.14" y="43.7" class="st77" width="4.23" height="671.14"/>
			<rect x="1346.36" y="43.7" class="st78" width="4.23" height="671.14"/>
			<rect x="1350.59" y="43.7" class="st38" width="4.23" height="671.14"/>
			<rect x="1354.82" y="43.7" class="st37" width="4.23" height="671.14"/>
			<rect x="1359.05" y="43.7" class="st36" width="4.23" height="671.14"/>
			<rect x="1363.28" y="43.7" class="st35" width="4.23" height="671.14"/>
			<rect x="1367.51" y="43.7" class="st34" width="4.23" height="671.14"/>
			<rect x="1371.74" y="43.7" class="st105" width="4.23" height="671.14"/>
			<rect x="1375.96" y="43.7" class="st106" width="4.23" height="671.14"/>
			<rect x="1380.19" y="43.7" class="st107" width="4.23" height="671.14"/>
			<rect x="1384.42" y="43.7" class="st108" width="4.23" height="671.14"/>
			<rect x="1388.65" y="43.7" class="st109" width="4.23" height="671.14"/>
			<rect x="1392.88" y="43.7" class="st110" width="4.23" height="671.14"/>
			<rect x="1397.11" y="43.7" class="st111" width="4.23" height="671.14"/>
			<rect x="1401.34" y="43.7" class="st111" width="0" height="671.14"/>
			<rect x="1401.34" y="43.7" class="st110" width="0" height="671.14"/>
			<rect x="1401.34" y="43.7" class="st109" width="0" height="671.14"/>
			<rect x="1401.34" y="43.7" class="st112" width="0" height="671.14"/>
			<rect x="1401.34" y="43.7" class="st33" width="0" height="671.14"/>
			<rect x="1401.34" y="43.7" class="st113" width="0" height="671.14"/>
			<rect x="1401.34" y="43.7" class="st114" width="0" height="671.14"/>
			<rect x="1401.34" y="43.7" class="st115" width="0" height="671.14"/>
			<rect x="1401.34" y="43.7" class="st116" width="0" height="671.14"/>
			<path class="st116" d="M1401.34,714.84V43.7V714.84z"/>
		</g>
		<path class="st117" d="M1343.72,719.35H60.82C27.28,719.35,0,680.88,0,633.6V124.94c0-47.29,27.28-85.76,60.82-85.76h1282.9
			c33.53,0,60.82,38.47,60.82,85.76V633.6C1404.54,680.88,1377.25,719.35,1343.72,719.35z M60.82,48.21
			c-30.01,0-54.42,34.42-54.42,76.73V633.6c0,42.31,24.41,76.73,54.42,76.73h1282.9c30.01,0,54.42-34.42,54.42-76.73V124.94
			c0-42.31-24.41-76.73-54.42-76.73H60.82z"/>
	</g>
</g>
</svg>
